<?xml version="1.0" standalone="no"?>
<!DOCTYPE svg PUBLIC "-//W3C//DTD SVG 20010904//EN"
 "http://www.w3.org/TR/2001/REC-SVG-20010904/DTD/svg10.dtd">
<svg version="1.0" xmlns="http://www.w3.org/2000/svg"
 width="774.000000pt" height="774.000000pt" viewBox="0 0 774.000000 774.000000"
 preserveAspectRatio="xMidYMid meet">
<metadata>
Created by potrace 1.14, written by Peter Selinger 2001-2017
</metadata>
<g transform="translate(0.000000,774.000000) scale(0.100000,-0.100000)"
fill="#000000" stroke="none">
<path d="M935 5982 c-111 -29 -184 -61 -251 -112 -98 -74 -169 -218 -189 -385
-4 -27 -8 -61 -11 -75 -4 -27 -11 -180 -19 -465 -3 -99 -8 -200 -10 -225 -33
-325 -96 -457 -253 -526 -80 -35 -133 -83 -167 -150 -26 -50 -30 -70 -29 -134
1 -125 56 -199 180 -240 114 -38 183 -126 222 -285 40 -162 50 -287 57 -715 2
-151 6 -284 8 -295 3 -11 8 -47 11 -80 29 -248 121 -411 269 -479 85 -38 245
-85 319 -92 60 -6 73 -4 122 20 93 46 146 132 146 238 0 108 -49 161 -177 195
-123 33 -163 75 -196 209 -22 86 -27 146 -32 364 -11 461 -14 516 -41 654 -44
231 -120 343 -308 455 -121 72 -122 58 4 132 149 86 244 210 290 377 38 139
49 233 55 482 9 385 22 495 68 590 39 83 81 110 197 131 113 20 142 63 144
219 1 119 -45 184 -150 209 -69 17 -151 11 -259 -17z"/>
<path d="M6552 5971 c-88 -30 -101 -57 -96 -186 4 -104 20 -168 47 -193 23
-21 85 -42 126 -42 14 0 43 -9 65 -20 90 -43 104 -126 131 -755 4 -77 8 -153
9 -170 45 -444 115 -559 404 -665 34 -12 64 -25 66 -29 2 -3 -43 -35 -101 -71
-66 -41 -124 -86 -155 -120 -99 -110 -177 -329 -203 -565 -3 -33 -8 -73 -10
-90 -3 -16 -7 -70 -10 -120 -3 -49 -7 -121 -10 -160 -2 -38 -7 -109 -10 -156
-9 -132 -19 -238 -32 -309 -6 -38 -47 -125 -62 -135 -6 -3 -52 -15 -103 -26
-57 -12 -101 -28 -115 -40 -28 -27 -44 -94 -48 -199 -7 -166 24 -195 205 -195
265 1 459 105 552 296 20 42 39 87 42 100 3 13 10 40 16 59 5 19 12 46 14 60
32 197 34 222 41 440 6 218 15 412 20 442 2 13 6 46 10 73 27 216 124 394 249
457 122 61 140 93 141 253 0 168 -10 184 -149 240 -184 73 -228 143 -251 395
-3 36 -8 187 -10 335 -5 335 -8 375 -41 595 -10 63 -64 214 -97 268 -62 104
-159 177 -302 228 -75 26 -263 29 -333 5z"/>
<path d="M3688 5395 c-2 -2 -28 -5 -58 -8 -118 -11 -302 -66 -445 -133 -300
-140 -611 -358 -1090 -765 -133 -112 -206 -171 -370 -296 -6 -5 -72 -54 -147
-111 -147 -110 -208 -172 -208 -209 0 -66 149 -273 321 -444 169 -167 289
-248 370 -249 31 0 38 4 49 30 23 55 -1 133 -73 240 -16 25 -81 109 -144 186
-62 78 -113 146 -113 152 0 21 329 228 605 381 126 70 122 72 107 -49 -15
-125 -14 -279 3 -370 20 -103 76 -272 117 -354 28 -57 133 -225 147 -236 3 -3
24 -27 46 -55 49 -61 182 -193 256 -255 65 -54 247 -147 364 -185 231 -76 514
-99 730 -60 347 64 580 205 786 478 116 153 231 387 255 516 3 13 11 54 19 90
21 100 13 287 -21 469 -9 46 -14 85 -12 87 3 3 154 -77 198 -105 22 -14 172
-103 193 -115 48 -26 384 -241 395 -252 7 -7 18 -13 23 -13 23 0 3 -36 -72
-127 -162 -195 -219 -294 -224 -384 -3 -54 10 -69 59 -69 33 0 147 60 221 117
77 60 273 257 351 353 70 86 124 177 124 208 0 38 -57 88 -223 198 -145 96
-424 290 -437 304 -3 3 -32 25 -65 50 -33 25 -62 47 -65 50 -12 13 -447 331
-510 373 -203 136 -262 173 -358 230 -263 157 -558 282 -732 311 -127 21 -358
34 -372 21z m332 -630 c303 -49 565 -237 678 -486 34 -74 49 -125 68 -224 10
-52 11 -174 2 -243 -34 -265 -172 -496 -386 -650 -249 -179 -611 -209 -899
-75 -146 68 -242 148 -331 278 -198 289 -243 645 -116 924 147 322 438 493
824 486 63 -2 135 -6 160 -10z"/>
</g>
</svg>
